<?xml version="1.0" standalone="no"?>
<!DOCTYPE svg PUBLIC "-//W3C//DTD SVG 20010904//EN"
 "http://www.w3.org/TR/2001/REC-SVG-20010904/DTD/svg10.dtd">
<svg version="1.0" xmlns="http://www.w3.org/2000/svg"
 width="512.000000pt" height="512.000000pt" viewBox="0 0 512.000000 512.000000"
 preserveAspectRatio="xMidYMid meet">
<metadata>
Created by potrace 1.11, written by Peter Selinger 2001-2013
</metadata>
<g transform="translate(0.000000,512.000000) scale(0.100000,-0.100000)"
fill="#000000" stroke="none">
<path d="M0 2560 l0 -2560 2560 0 2560 0 0 2560 0 2560 -2560 0 -2560 0 0
-2560z m2772 2518 c16 -13 1856 -2598 1878 -2637 6 -13 10 -146 10 -374 0
-323 -2 -357 -17 -375 -18 -20 -2417 -1615 -2460 -1635 -42 -19 -66 -1 -143
105 -41 57 -234 319 -429 583 -195 264 -441 597 -546 741 l-192 261 -6 738
c-4 406 -7 876 -7 1045 0 305 0 307 22 327 53 48 1833 1233 1853 1233 12 0 28
-6 37 -12z"/>
<path d="M1872 4371 c-463 -311 -842 -570 -842 -576 1 -5 78 -103 171 -218
l171 -207 26 18 c32 23 1072 696 1116 723 41 25 68 24 93 -3 12 -13 201 -284
420 -603 220 -319 452 -656 516 -749 65 -93 117 -179 117 -190 0 -12 -6 -29
-12 -38 -7 -9 -293 -195 -635 -413 -496 -316 -628 -396 -650 -393 -23 2 -63
47 -224 248 -108 134 -201 246 -207 248 -9 3 -256 -157 -424 -275 l-56 -39
211 -275 c117 -151 266 -345 332 -430 67 -85 136 -176 155 -202 19 -26 39 -46
44 -43 14 5 2288 1465 2298 1474 5 6 -1746 2482 -1770 2503 -4 3 -386 -249
-850 -560z"/>
<path d="M1958 3596 c-289 -187 -530 -344 -533 -348 -4 -4 -4 -275 0 -602 l7
-595 224 150 224 150 1 222 c1 122 4 265 8 317 l6 94 288 186 c158 103 292
191 297 196 7 7 9 113 8 291 l-3 281 -527 -342z"/>
<path d="M2620 3602 l0 -252 291 -458 c160 -251 297 -463 304 -470 10 -11 35
1 136 64 68 42 130 83 138 90 11 10 -59 117 -419 636 -238 342 -437 627 -442
633 -4 5 -8 -105 -8 -243z"/>
<path d="M990 3268 c0 -194 3 -606 7 -916 l6 -563 137 -187 c309 -424 943
-1277 951 -1280 4 -2 10 113 11 255 l3 258 -132 175 c-73 96 -189 247 -258
335 -69 88 -192 247 -273 354 l-147 195 -3 686 -2 687 -146 176 c-80 98 -147
177 -150 177 -2 0 -4 -159 -4 -352z"/>
<path d="M2310 3100 c-118 -77 -234 -154 -257 -170 l-43 -30 0 -281 0 -282
176 -221 c97 -121 182 -227 189 -234 9 -10 82 32 366 213 195 125 358 230 362
234 8 8 -560 911 -572 911 -3 0 -103 -63 -221 -140z"/>
<path d="M3375 1557 l-1140 -732 -6 -290 c-4 -160 -5 -291 -4 -293 2 -2 521
340 1154 760 l1151 763 0 262 c0 145 -3 263 -7 262 -5 0 -521 -330 -1148 -732z"/>
</g>
</svg>
